# xmcd
#
# Track frame offsets:
#	150
#	13489
#	29319
#	43050
#	55616
#	72115
#	94747
#	111718
#	129347
#	142869
#	156630
#	169972
#	186444
#	214179
#	231994
#	253679
#	273955
#	291545
#	308593
#
# Disc length: 4397 seconds
#
# Revision: 0
# Processed by: cddbd v1.5.2PL0 Copyright (c) Steve Scherf et al.
# Submitted via: EasyCDDAExtractor 11.5.3.1
#
DISCID=26112b13
DTITLE=Leroy Hutson - Anthology 1972-1984
DYEAR=2017
DGENRE=Soul
TTITLE0=Cool Out
TTITLE1=All Because of You
TTITLE2=Don't it Make You Feel Good
TTITLE3=Love the Feeling
TTITLE4=Positive Forces
TTITLE5=Lucky Fellow
TTITLE6=Never Know What You Can Do (Give it a Try)
TTITLE7=Love Oh Love
TTITLE8=Ella Weez
TTITLE9=Could This Be Love
TTITLE10=So in Love with You
TTITLE11=Think I'm Falling in Love
TTITLE12=Closer to the Source
TTITLE13=Give This Love a Try
TTITLE14=Right or Wrong
TTITLE15=Now That I Found You
TTITLE16=Get to This (You'll Get to Me)
TTITLE17=Lover's Holiday
TTITLE18=Time Brings on a Change
EXTD=
EXTT0=
EXTT1=
EXTT2=
EXTT3=
EXTT4=
EXTT5=
EXTT6=
EXTT7=
EXTT8=
EXTT9=
EXTT10=
EXTT11=
EXTT12=
EXTT13=
EXTT14=
EXTT15=
EXTT16=
EXTT17=
EXTT18=
PLAYORDER=
